<?xml version="1.0" standalone="no"?>
<!DOCTYPE svg PUBLIC "-//W3C//DTD SVG 20010904//EN"
 "http://www.w3.org/TR/2001/REC-SVG-20010904/DTD/svg10.dtd">
<svg version="1.0" xmlns="http://www.w3.org/2000/svg"
 width="512.000000pt" height="512.000000pt" viewBox="0 0 512.000000 512.000000"
 preserveAspectRatio="xMidYMid meet">
<metadata>
Created by potrace 1.11, written by Peter Selinger 2001-2013
</metadata>
<g transform="translate(0.000000,512.000000) scale(0.100000,-0.100000)"
fill="#000000" stroke="none">
<path d="M4155 4918 c-31 -101 -42 -158 -44 -242 -1 -29 -2 -29 -17 -10 -14
18 -15 14 -11 -43 3 -35 1 -63 -4 -63 -5 0 -7 -12 -6 -27 3 -27 8 -40 28 -92
l10 -23 -34 19 -34 20 8 -47 c6 -38 25 -91 47 -132 2 -3 -6 -4 -17 -1 -29 7
-26 -8 10 -73 l31 -55 -26 7 c-24 6 -26 3 -26 -22 0 -16 9 -48 20 -72 l20 -43
-23 7 c-12 4 -28 9 -35 11 -12 5 -11 -32 3 -107 2 -14 7 -45 11 -70 3 -24 8
-48 10 -52 12 -19 -16 -6 -30 14 -17 25 -18 22 -18 -50 1 -23 4 -47 8 -53 4
-7 0 -9 -14 -5 -19 7 -20 3 -17 -97 1 -58 8 -113 15 -126 11 -22 11 -23 -13
-17 -24 6 -25 5 -17 -24 10 -35 7 -37 -18 -12 -10 9 -32 28 -49 41 -17 14 -29
30 -27 36 3 6 -28 43 -68 82 -40 39 -80 83 -88 98 -29 55 -151 111 -237 110
-58 -1 -68 8 -26 22 l28 10 -30 19 c-23 15 -48 19 -115 20 -61 0 -93 5 -109
16 -22 16 -115 17 -179 4 -15 -4 -37 -8 -50 -11 -13 -2 -37 -11 -54 -20 -19
-9 -58 -15 -99 -15 -89 0 -157 -26 -279 -105 -52 -33 -98 -62 -103 -63 -48 -9
-224 -122 -220 -140 2 -7 -21 -27 -51 -46 -30 -19 -60 -47 -68 -63 -7 -15 -18
-27 -23 -26 -6 1 -17 -4 -25 -12 -8 -7 -31 -20 -50 -30 -18 -10 -40 -24 -47
-31 -8 -7 -27 -21 -43 -31 -17 -9 -30 -21 -30 -25 0 -4 -6 -8 -14 -8 -8 0 -16
-4 -18 -10 -2 -5 -19 -12 -38 -15 -28 -4 -31 -4 -14 4 56 25 31 46 -64 57 -55
6 -60 8 -45 20 45 35 -67 41 -193 11 -51 -12 -63 -12 -79 -1 -10 8 -27 12 -36
9 -10 -3 -26 -7 -36 -9 -11 -2 -36 -11 -56 -20 -20 -8 -37 -11 -37 -5 0 33
-138 -26 -244 -105 -40 -31 -79 -56 -86 -56 -7 0 -29 -12 -49 -27 -46 -34
-221 -210 -221 -223 0 -5 -11 -25 -24 -45 -14 -20 -32 -62 -42 -93 -40 -136
-43 -167 -40 -361 l3 -192 -78 -71 c-90 -81 -102 -106 -100 -211 2 -144 26
-241 61 -252 11 -3 28 -23 37 -43 38 -80 127 -146 228 -171 39 -10 197 -24
260 -23 52 1 197 12 203 15 4 3 30 8 57 11 64 8 97 15 180 35 53 14 55 14 55
-4 0 -22 15 -18 32 7 14 21 16 18 37 -62 13 -46 46 -130 73 -185 27 -55 57
-116 66 -135 9 -19 53 -71 98 -115 44 -44 86 -90 92 -102 10 -19 11 -99 1
-107 -2 -2 -33 -16 -69 -33 -109 -50 -165 -112 -190 -213 -13 -50 -17 -117 -7
-126 3 -3 30 1 60 10 73 21 73 21 73 -21 -1 -33 2 -38 21 -36 13 2 42 11 65
22 74 33 75 33 75 -5 0 -19 2 -36 4 -39 10 -9 194 67 246 101 105 71 146 142
149 264 2 47 3 89 3 93 1 5 11 1 23 -7 41 -29 56 -21 53 28 -3 35 0 44 11 39
8 -3 14 -8 14 -12 0 -3 25 -22 55 -41 59 -38 61 -42 42 -62 -25 -25 -49 -91
-50 -137 l-2 -46 48 3 c38 3 47 1 47 -12 0 -9 -12 -21 -27 -27 -46 -17 -92
-58 -128 -112 -40 -61 -54 -106 -34 -108 8 -1 21 -2 29 -3 8 0 14 -5 14 -11
-1 -5 -4 -29 -8 -51 -5 -33 -3 -43 10 -48 10 -4 24 0 33 8 9 7 31 16 49 18 28
4 32 2 26 -15 -3 -11 -8 -34 -9 -52 l-3 -31 49 0 c27 1 49 4 49 7 0 4 17 4 38
0 48 -8 183 -6 247 3 28 4 59 9 70 10 33 5 80 33 121 73 71 69 97 139 99 268
2 94 9 118 64 210 17 28 30 58 31 68 0 13 5 17 19 12 13 -4 25 5 46 35 31 44
40 48 54 23 28 -49 28 -49 67 -9 30 31 41 36 63 31 39 -10 62 -35 59 -64 -2
-20 -13 -29 -52 -44 -27 -10 -73 -32 -101 -49 -41 -25 -56 -41 -77 -87 -27
-58 -36 -91 -44 -150 -5 -41 12 -67 32 -50 8 6 14 9 14 6 0 -3 23 1 50 8 l50
13 0 -33 c0 -55 7 -64 43 -54 18 4 46 10 62 13 17 3 45 8 63 11 17 3 32 2 32
-3 0 -4 6 -16 13 -27 13 -17 15 -17 58 1 147 64 219 115 275 195 44 62 55 121
33 180 -24 69 -22 162 7 244 39 111 40 151 8 220 -15 33 -34 93 -43 134 -17
73 -17 74 6 119 13 25 23 56 23 70 0 17 4 23 15 19 12 -5 28 7 30 23 1 3 9 21
19 39 21 40 25 176 7 225 -10 24 -9 27 3 23 9 -4 18 -2 20 2 9 14 20 141 20
233 1 70 3 84 14 75 19 -15 14 120 -6 188 -8 28 -16 68 -17 90 l-2 40 76 36
c68 33 110 65 149 113 16 20 15 37 -1 30 -8 -3 10 20 39 51 43 45 84 105 84
122 0 1 -7 3 -16 3 -13 0 -11 7 10 34 31 41 31 44 9 48 -14 2 -8 12 25 42 30
28 39 42 30 47 -9 6 -5 16 15 37 37 39 35 51 -10 45 l-37 -5 37 38 c20 21 37
42 37 46 0 3 -12 8 -27 10 -26 4 -26 5 -8 13 31 14 84 85 85 114 0 9 -8 12
-27 8 -51 -10 -57 3 -19 42 35 36 84 123 91 162 4 18 0 20 -24 14 -39 -8 -44
5 -22 51 10 22 21 51 25 67 6 26 5 27 -19 21 -20 -5 -24 -3 -19 10 3 9 9 16
13 16 7 0 31 58 31 74 0 5 -6 3 -14 -3 -21 -17 -39 10 -27 41 8 21 15 86 12
111 -1 4 -14 1 -31 -8 -35 -18 -39 -6 -10 33 11 15 26 56 34 90 l15 64 -25 -6
c-13 -4 -24 -5 -24 -4 0 2 6 23 14 48 13 45 15 104 3 116 -3 4 -13 -1 -22 -10
-18 -17 -37 -13 -30 7 4 12 10 38 21 105 3 19 1 32 -5 32 -6 0 -11 -4 -11 -9
0 -5 -14 -14 -31 -20 -30 -10 -31 -10 -24 12 10 29 8 158 -2 168 -5 5 -21 -3
-35 -16 -36 -33 -45 -31 -40 6 5 37 -15 104 -37 122 -8 7 -12 7 -8 1 3 -6 0
-20 -8 -30 -14 -19 -14 -19 -15 1 0 11 -9 38 -20 60 -11 22 -19 45 -20 52 0
21 -23 27 -36 9 -16 -22 -30 -15 -38 20 -9 33 -88 173 -99 174 -4 0 -9 -6 -12
-12z"/>
</g>
</svg>
